<svg width="24" height="16" viewBox="0 0 24 16" fill="none" xmlns="http://www.w3.org/2000/svg">
  <g clip-path="url(#clip0_615_4309)">
    <path d="M8.86592 1.6062H15.4366V13.4126H8.86592V1.6062Z" fill="#FF5F00"/>
    <path d="M9.28246 7.50938C9.28246 5.11059 10.4088 2.98289 12.1401 1.60613C10.8678 0.604901 9.26165 0 7.50948 0C3.35831 0 0 3.35831 0 7.50938C0 11.6604 3.35831 15.0188 7.50938 15.0188C9.26156 15.0188 10.8677 14.4139 12.1401 13.4125C10.4088 12.0567 9.28246 9.90817 9.28246 7.50938Z" fill="#EB001B"/>
    <path d="M24.3012 7.50938C24.3012 11.6604 20.9429 15.0188 16.7919 15.0188C15.0397 15.0188 13.4336 14.4139 12.1611 13.4125C13.9133 12.0359 15.0189 9.90817 15.0189 7.50938C15.0189 5.11059 13.8924 2.98289 12.1611 1.60613C13.4335 0.604901 15.0397 0 16.7919 0C20.9429 0 24.3013 3.37922 24.3013 7.50938H24.3012Z" fill="#F79E1B"/>
    <path d="M4.42658 8.87667V7.62515C4.42658 7.1453 4.13449 6.83249 3.63383 6.83249C3.38354 6.83249 3.11235 6.91592 2.92459 7.18711C2.77864 6.95763 2.57007 6.83249 2.25717 6.83249C2.0485 6.83249 1.84003 6.89501 1.67308 7.12449V6.8742H1.23503V8.87667H1.67308V7.7711C1.67308 7.41658 1.86084 7.24963 2.15293 7.24963C2.44483 7.24963 2.59097 7.43739 2.59097 7.7711V8.87667H3.02902V7.7711C3.02902 7.41658 3.23749 7.24963 3.50868 7.24963C3.80078 7.24963 3.94673 7.43739 3.94673 7.7711V8.87667H4.42658ZM10.9137 6.8742H10.2046V6.2693H9.76655V6.8742H9.37022V7.27044H9.76645V8.18834C9.76645 8.64729 9.95421 8.91838 10.4549 8.91838C10.6426 8.91838 10.8511 8.85586 10.9973 8.77243L10.872 8.39691C10.7469 8.48034 10.6009 8.50124 10.4966 8.50124C10.288 8.50124 10.2046 8.3761 10.2046 8.16743V7.27044H10.9137V6.8742ZM14.6268 6.83239C14.3765 6.83239 14.2096 6.95763 14.1053 7.12449V6.8742H13.6672V8.87667H14.1053V7.75029C14.1053 7.41658 14.2512 7.22882 14.5224 7.22882C14.6059 7.22882 14.7102 7.24973 14.7936 7.27054L14.9188 6.8534C14.8353 6.83249 14.7102 6.83249 14.6268 6.83249V6.83239ZM9.0156 7.04106C8.80693 6.89501 8.51494 6.83249 8.20203 6.83249C7.70147 6.83249 7.36775 7.08277 7.36775 7.4791C7.36775 7.81291 7.61804 8.00058 8.05608 8.0632L8.26465 8.0841C8.49413 8.12572 8.61927 8.18834 8.61927 8.29267C8.61927 8.43862 8.45241 8.54295 8.16032 8.54295C7.86832 8.54295 7.63885 8.43862 7.4928 8.33439L7.28423 8.6681C7.5137 8.83495 7.82661 8.91838 8.13942 8.91838C8.72351 8.91838 9.05731 8.64729 9.05731 8.27177C9.05731 7.91715 8.78612 7.72939 8.36889 7.66687L8.16032 7.64596C7.97256 7.62506 7.82661 7.58344 7.82661 7.4583C7.82661 7.31225 7.97256 7.22882 8.20203 7.22882C8.45241 7.22882 8.7027 7.33306 8.82784 7.39568L9.0156 7.04106ZM20.6551 6.83249C20.4048 6.83249 20.2379 6.95763 20.1336 7.12449V6.8742H19.6955V8.87667H20.1336V7.75029C20.1336 7.41658 20.2796 7.22882 20.5507 7.22882C20.6342 7.22882 20.7386 7.24973 20.822 7.27054L20.9471 6.8534C20.8637 6.83249 20.7386 6.83249 20.6551 6.83249ZM15.0648 7.87544C15.0648 8.48034 15.4819 8.91838 16.1286 8.91838C16.4206 8.91838 16.6292 8.85586 16.8378 8.689L16.6292 8.33439C16.4624 8.45953 16.2955 8.52205 16.1077 8.52205C15.7531 8.52205 15.5028 8.27177 15.5028 7.87544C15.5028 7.50001 15.7531 7.24963 16.1077 7.22882C16.2955 7.22882 16.4624 7.29135 16.6292 7.41658L16.8378 7.06196C16.6292 6.89501 16.4206 6.83249 16.1286 6.83249C15.4819 6.83249 15.0648 7.27053 15.0648 7.87544ZM19.1115 7.87544V6.8742H18.6735V7.12449C18.5274 6.93682 18.3189 6.83249 18.0477 6.83249C17.4845 6.83249 17.0465 7.27053 17.0465 7.87544C17.0465 8.48034 17.4845 8.91838 18.0477 8.91838C18.3397 8.91838 18.5483 8.81414 18.6735 8.62638V8.87667H19.1115V7.87544ZM17.5053 7.87544C17.5053 7.52082 17.7348 7.22882 18.1102 7.22882C18.4648 7.22882 18.7152 7.50001 18.7152 7.87544C18.7152 8.23005 18.4648 8.52205 18.1102 8.52205C17.7348 8.50115 17.5053 8.23005 17.5053 7.87544ZM12.2697 6.83249C11.6856 6.83249 11.2683 7.24963 11.2683 7.87544C11.2683 8.50124 11.6855 8.91838 12.2905 8.91838C12.5825 8.91838 12.8746 8.83495 13.104 8.64729L12.8954 8.33439C12.7285 8.45953 12.52 8.54295 12.3114 8.54295C12.0402 8.54295 11.769 8.41781 11.7064 8.0631H13.1875V7.89634C13.2084 7.24963 12.833 6.83249 12.2697 6.83249ZM12.2697 7.20792C12.5408 7.20792 12.7286 7.37487 12.7702 7.68777H11.7273C11.769 7.41658 11.9568 7.20792 12.2697 7.20792ZM23.1374 7.87544V6.08154H22.6993V7.12449C22.5533 6.93682 22.3447 6.83249 22.0735 6.83249C21.5103 6.83249 21.0723 7.27053 21.0723 7.87544C21.0723 8.48034 21.5103 8.91838 22.0735 8.91838C22.3656 8.91838 22.5742 8.81414 22.6993 8.62638V8.87667H23.1374V7.87544ZM21.5312 7.87544C21.5312 7.52082 21.7606 7.22882 22.1361 7.22882C22.4908 7.22882 22.741 7.50001 22.741 7.87544C22.741 8.23005 22.4908 8.52205 22.1361 8.52205C21.7606 8.50115 21.5312 8.23005 21.5312 7.87544ZM6.8879 7.87544V6.8742H6.44985V7.12449C6.30381 6.93682 6.09524 6.83249 5.82405 6.83249C5.26086 6.83249 4.82282 7.27053 4.82282 7.87544C4.82282 8.48034 5.26086 8.91838 5.82405 8.91838C6.11614 8.91838 6.32471 8.81414 6.44985 8.62638V8.87667H6.8879V7.87544ZM5.26086 7.87544C5.26086 7.52082 5.49034 7.22882 5.86576 7.22882C6.22038 7.22882 6.47076 7.50001 6.47076 7.87544C6.47076 8.23005 6.22038 8.52205 5.86576 8.52205C5.49034 8.50115 5.26086 8.23005 5.26086 7.87544Z" fill="white"/>
  </g>
  <defs>
    <clipPath id="clip0_615_4309">
      <rect width="24" height="15.2727" fill="white"/>
    </clipPath>
  </defs>
</svg>
