<svg width="1em" height="1em" viewBox="0 0 21 20" fill="none" xmlns="http://www.w3.org/2000/svg">
  <path d="M15.175 19.85C16.5475 19.85 17.8638 19.3048 18.8343 18.3343C19.8048 17.3638 20.35 16.0475 20.35 14.675C20.35 13.3026 19.8048 11.9863 18.8343 11.0158C17.8638 10.0453 16.5475 9.50005 15.175 9.50005C13.8026 9.50005 12.4863 10.0453 11.5158 11.0158C10.5453 11.9863 10 13.3026 10 14.675C10 16.0475 10.5453 17.3638 11.5158 18.3343C12.4863 19.3048 13.8026 19.85 15.175 19.85ZM15.8926 17.5558C15.8965 17.6525 15.8808 17.749 15.8465 17.8396C15.8121 17.9301 15.7598 18.0127 15.6928 18.0825C15.6257 18.1523 15.5452 18.2079 15.4562 18.2458C15.3671 18.2837 15.2713 18.3033 15.1745 18.3033C15.0777 18.3033 14.9819 18.2837 14.8928 18.2458C14.8037 18.2079 14.7232 18.1523 14.6562 18.0825C14.5891 18.0127 14.5368 17.9301 14.5025 17.8396C14.4681 17.749 14.4524 17.6525 14.4563 17.5558C14.4563 17.3652 14.532 17.1824 14.6668 17.0476C14.8016 16.9128 14.9844 16.837 15.175 16.837C15.3657 16.837 15.5485 16.9128 15.6833 17.0476C15.8181 17.1824 15.8938 17.3652 15.8938 17.5558H15.8926ZM17.3071 13.471C17.3071 14.1449 17.0599 14.5152 16.47 14.9879L16.1514 15.2339C15.8685 15.4571 15.7731 15.5789 15.7535 15.7492L15.7408 15.9286C15.7153 16.0699 15.6376 16.1966 15.5233 16.2836C15.409 16.3707 15.2662 16.4117 15.1231 16.3988C14.98 16.3858 14.8469 16.3197 14.7501 16.2135C14.6533 16.1073 14.5998 15.9687 14.6 15.8251C14.6 15.1695 14.8415 14.8084 15.4234 14.3439L15.7432 14.0966C16.0744 13.8321 16.1572 13.7033 16.1572 13.471C16.1572 12.8293 15.7178 12.3785 15.175 12.3785C14.6069 12.3785 14.1872 12.7994 14.193 13.4653C14.1937 13.5408 14.1796 13.6157 14.1514 13.6857C14.1232 13.7558 14.0815 13.8196 14.0286 13.8735C13.9757 13.9274 13.9128 13.9704 13.8433 14C13.7738 14.0296 13.6992 14.0452 13.6237 14.046C13.5482 14.0468 13.4733 14.0326 13.4032 14.0044C13.3332 13.9762 13.2694 13.9345 13.2154 13.8817C13.1615 13.8288 13.1185 13.7658 13.0889 13.6964C13.0593 13.6269 13.0437 13.5523 13.0429 13.4768C13.0314 12.1692 13.9698 11.2285 15.175 11.2285C16.3607 11.2285 17.306 12.2014 17.306 13.471H17.3071ZM8.85005 0.300049C7.63005 0.300049 6.46003 0.78469 5.59736 1.64736C4.73469 2.51003 4.25005 3.68005 4.25005 4.90005C4.25005 6.12005 4.73469 7.29007 5.59736 8.15274C6.46003 9.01541 7.63005 9.50005 8.85005 9.50005C10.07 9.50005 11.2401 9.01541 12.1027 8.15274C12.9654 7.29007 13.45 6.12005 13.4501 4.90005C13.45 3.68005 12.9654 2.51003 12.1027 1.64736C11.2401 0.78469 10.07 0.300049 8.85005 0.300049ZM3.1104 10.65C2.80753 10.6488 2.5074 10.7074 2.22723 10.8225C1.94705 10.9375 1.69234 11.1067 1.4777 11.3204C1.26306 11.5341 1.09271 11.788 0.97642 12.0677C0.860134 12.3473 0.800198 12.6472 0.800049 12.9501C0.800049 14.8947 1.758 16.361 3.2553 17.3166C4.7296 18.2562 6.7168 18.7001 8.85005 18.7001C9.32155 18.7001 9.78845 18.6782 10.2415 18.6345C9.33872 17.5126 8.8476 16.1151 8.85005 14.675C8.85005 13.1455 9.39285 11.7425 10.2956 10.65H3.11155H3.1104Z" fill="currentColor"/>
</svg>
