<svg width="1em" height="1em" viewBox="0 0 16 16" fill="none" xmlns="http://www.w3.org/2000/svg">
  <path d="M8.00049 0C9.06136 0 10.0788 0.421427 10.8289 1.17157C11.5791 1.92172 12.0005 2.93913 12.0005 4C12.0005 5.06087 11.5791 6.07828 10.8289 6.82843C10.0788 7.57857 9.06136 8 8.00049 8C6.93962 8 5.92221 7.57857 5.17206 6.82843C4.42192 6.07828 4.00049 5.06087 4.00049 4C4.00049 2.93913 4.42192 1.92172 5.17206 1.17157C5.92221 0.421427 6.93962 0 8.00049 0ZM8.00049 16C8.00049 16 16.0005 16 16.0005 14C16.0005 11.6 12.1005 9 8.00049 9C3.90049 9 0.000488281 11.6 0.000488281 14C0.000488281 16 8.00049 16 8.00049 16Z" fill="currentColor"/>
</svg>
